<svg version="1.1" viewBox="0.0 0.0 143.6797900262467 144.3202099737533" fill="none" stroke="none" stroke-linecap="square" stroke-miterlimit="10" xmlns:xlink="http://www.w3.org/1999/xlink" xmlns="http://www.w3.org/2000/svg"><clipPath id="p.0"><path d="m0 0l143.6798 0l0 144.3202l-143.6798 0l0 -144.3202z" clip-rule="nonzero"/></clipPath><g clip-path="url(#p.0)"><path fill="#000000" fill-opacity="0.0" d="m0 0l143.6798 0l0 144.3202l-143.6798 0z" fill-rule="evenodd"/><path fill="#000000" d="m0 -0.32020998l143.68504 0l0 145.29134l-143.68504 0z" fill-rule="evenodd"/><path fill="#ffffff" d="m27.623768 72.95545q0 -13.999996 4.1875 -23.499996q3.125 -7.0 8.53125 -12.5625q5.40625 -5.5625 11.84375 -8.25q8.5625 -3.625 19.749996 -3.625q20.25 0 32.40625 12.5625q12.15625 12.5625 12.15625 34.937496q0 22.1875 -12.0625 34.71875q-12.0625 12.53125 -32.25 12.53125q-20.437496 0 -32.499996 -12.46875q-12.0625 -12.46875 -12.0625 -34.34375zm19.0625 -0.625q0 15.5625 7.1875 23.59375q7.1875 8.03125 18.249996 8.03125q11.0625 0 18.15625 -7.96875q7.09375 -7.96875 7.09375 -23.90625q0 -15.749996 -6.90625 -23.499996q-6.90625 -7.75 -18.34375 -7.75q-11.437496 0 -18.437496 7.84375q-7.0 7.84375 -7.0 23.656246z" fill-rule="nonzero"/></g></svg>